<?xml version="1.0" encoding="UTF-8" standalone="no"?>
<svg
   xmlns:dc="http://purl.org/dc/elements/1.1/"
   xmlns:cc="http://creativecommons.org/ns#"
   xmlns:rdf="http://www.w3.org/1999/02/22-rdf-syntax-ns#"
   xmlns:svg="http://www.w3.org/2000/svg"
   xmlns="http://www.w3.org/2000/svg"
   xmlns:xlink="http://www.w3.org/1999/xlink"
   xmlns:sodipodi="http://sodipodi.sourceforge.net/DTD/sodipodi-0.dtd"
   xmlns:inkscape="http://www.inkscape.org/namespaces/inkscape"
   width="32.0px"
   height="32.0px"
   viewBox="0 0 32.0 32.0"
   version="1.1"
   id="SVGRoot"
   sodipodi:docname="keyboard.svg"
   inkscape:version="1.0.1 (3bc2e813f5, 2020-09-07)">
  <defs
     id="defs96">
    <radialGradient
       cx="400.57144"
       cy="531.79797"
       inkscape:collect="always"
       r="13.999979"
       id="radialGradient4227-3"
       xlink:href="#linearGradient4229"
       gradientUnits="userSpaceOnUse"
       gradientTransform="matrix(1.0769247,0,0,1.0769247,-415.38529,-556.70639)" />
    <linearGradient
       inkscape:collect="always"
       id="linearGradient4229">
      <stop
         style="stop-color:#566069"
         id="stop4231" />
      <stop
         offset="1"
         style="stop-color:#18222a"
         id="stop4233" />
    </linearGradient>
    <linearGradient
       inkscape:collect="always"
       id="linearGradient4262-5"
       xlink:href="#linearGradient4191"
       y1="543.79797"
       y2="519.79797"
       gradientUnits="userSpaceOnUse"
       x2="0"
       gradientTransform="matrix(1.0769247,0,0,1.0769231,-415.38529,-556.70553)" />
    <linearGradient
       inkscape:collect="always"
       id="linearGradient4191">
      <stop
         style="stop-color:#18222a"
         id="stop4193" />
      <stop
         offset="1"
         style="stop-color:#566069"
         id="stop4195" />
    </linearGradient>
    <linearGradient
       inkscape:collect="always"
       id="linearGradient4303">
      <stop
         style="stop-color:#c6cdd1"
         id="stop4305" />
      <stop
         offset="1"
         style="stop-color:#e0e5e7"
         id="stop4307" />
    </linearGradient>
    <linearGradient
       inkscape:collect="always"
       xlink:href="#linearGradient4303"
       id="linearGradient4696"
       y1="540.79797"
       y2="522.79797"
       x2="0"
       gradientUnits="userSpaceOnUse" />
  </defs>
  <sodipodi:namedview
     id="base"
     pagecolor="#ffffff"
     bordercolor="#666666"
     borderopacity="1.0"
     inkscape:pageopacity="0.0"
     inkscape:pageshadow="2"
     inkscape:zoom="11.2"
     inkscape:cx="25.576837"
     inkscape:cy="15.978062"
     inkscape:document-units="px"
     inkscape:current-layer="layer1"
     inkscape:document-rotation="0"
     showgrid="true"
     inkscape:window-width="1440"
     inkscape:window-height="831"
     inkscape:window-x="0"
     inkscape:window-y="0"
     inkscape:window-maximized="1">
    <inkscape:grid
       type="xygrid"
       id="grid105" />
  </sodipodi:namedview>
  <metadata
     id="metadata99">
    <rdf:RDF>
      <cc:Work
         rdf:about="">
        <dc:format>image/svg+xml</dc:format>
        <dc:type
           rdf:resource="http://purl.org/dc/dcmitype/StillImage" />
        <dc:title></dc:title>
      </cc:Work>
    </rdf:RDF>
  </metadata>
  <g
     inkscape:label="Layer 1"
     inkscape:groupmode="layer"
     id="layer1">
    <path
       inkscape:connector-curvature="0"
       id="path4369-3"
       d=""
       style="stroke-width:0.538462" />
    <g
       id="g103">
      <g
         id="g90">
        <rect
           width="28"
           x="1.9999976"
           y="1.9999999"
           rx="1.0769172"
           height="27.999994"
           style="fill:url(#radialGradient4227-3);stroke-width:1.07692;stroke-linejoin:round"
           id="rect4189-0" />
        <rect
           width="25.846191"
           x="3.0768878"
           y="3.0769067"
           rx="0.53847229"
           height="25.846153"
           style="fill:url(#linearGradient4262-5);stroke-width:1.07692;stroke-linejoin:round"
           id="rect4237-6" />
      </g>
      <g
         inkscape:label="Capa 1"
         id="layer1-36"
         transform="matrix(0.75,0,0,0.75,-284.42858,-382.84848)">
        <rect
           width="31.999975"
           x="384.57144"
           y="522.79797"
           height="18"
           style="opacity:0.99;fill:url(#linearGradient4696)"
           id="rect4688" />
        <rect
           width="32"
           x="384.57144"
           y="539.79797"
           height="1"
           style="fill:#abb4ba"
           id="rect4733" />
        <rect
           width="1"
           x="414.57141"
           y="523.79822"
           height="1"
           style="fill:#31c281"
           id="rect4462-0-90-5" />
        <rect
           width="1"
           x="411.57135"
           y="523.79822"
           height="1"
           style="fill:#31c281"
           id="rect4975-0" />
        <rect
           width="1"
           x="408.57141"
           y="523.79822"
           height="1"
           style="fill:#31c281"
           id="rect4977-0" />
        <path
           inkscape:connector-curvature="0"
           style="fill:#536161"
           id="rect4758"
           d="m 1,12 v 3 h 3 v -3 z m 4,0 v 3 h 3 v -3 z m 4,0 v 3 h 3 v -3 z m 4,0 v 3 h 3 v -3 z m 4,0 v 3 h 3 v -3 z m 4,0 v 3 h 3 v -3 z m 4,0 v 3 h 6 V 12 Z M 1,16 v 3 h 5 v -3 z m 6,0 v 3 h 3 v -3 z m 4,0 v 3 h 3 v -3 z m 4,0 v 3 h 3 v -3 z m 4,0 v 3 h 3 v -3 z m 4,0 v 3 h 3 v -3 z m 4,0 v 3 h 4 V 16 Z M 1,20 v 3 h 3 v -3 z m 4,0 v 3 h 3 v -3 z m 4,0 v 3 h 10 v -3 z m 11,1 v 2 h 3 v -2 z m 4,-1 v 3 h 3 v -3 z m 4,1 v 2 h 3 v -2 z"
           transform="translate(384.57143,515.798)" />
        <path
           style="fill:#334545"
           id="rect4768"
           d="m 1,14 v 1 h 3 v -1 z m 4,0 v 1 h 3 v -1 z m 4,0 v 1 h 3 v -1 z m 4,0 v 1 h 3 v -1 z m 4,0 v 1 h 3 v -1 z m 4,0 v 1 h 3 v -1 z m 4,0 v 1 h 6 V 14 Z M 1,18 v 1 h 5 v -1 z m 6,0 v 1 h 3 v -1 z m 4,0 v 1 h 3 v -1 z m 4,0 v 1 h 3 v -1 z m 4,0 v 1 h 3 v -1 z m 4,0 v 1 h 3 v -1 z m 4,0 v 1 h 4 V 18 Z M 1,22 v 1 h 3 v -1 z m 4,0 v 1 h 3 v -1 z m 4,0 v 1 h 10 v -1 z m 11,0 v 1 h 3 v -1 z m 4,0 v 1 h 3 v -1 z m 4,0 v 1 h 3 v -1 z"
           transform="translate(384.57143,515.798)" />
      </g>
    </g>
  </g>
</svg>
