<?xml version="1.0" encoding="UTF-8" standalone="no"?>
<svg
   xmlns:dc="http://purl.org/dc/elements/1.1/"
   xmlns:cc="http://creativecommons.org/ns#"
   xmlns:rdf="http://www.w3.org/1999/02/22-rdf-syntax-ns#"
   xmlns:svg="http://www.w3.org/2000/svg"
   xmlns="http://www.w3.org/2000/svg"
   xmlns:xlink="http://www.w3.org/1999/xlink"
   xmlns:sodipodi="http://sodipodi.sourceforge.net/DTD/sodipodi-0.dtd"
   xmlns:inkscape="http://www.inkscape.org/namespaces/inkscape"
   width="32.0px"
   height="32.0px"
   viewBox="0 0 32.0 32.0"
   version="1.1"
   id="SVGRoot"
   sodipodi:docname="reboot.svg"
   inkscape:version="1.0.1 (3bc2e813f5, 2020-09-07)">
  <defs
     id="defs18">
    <linearGradient
       xlink:href="#linearGradient4167"
       id="linearGradient4161"
       x1="-44"
       y1="-24"
       x2="-4"
       y2="-24"
       gradientUnits="userSpaceOnUse" />
    <linearGradient
       id="linearGradient4167">
      <stop
         style="stop-color:#7cb342;stop-opacity:1"
         offset="0"
         id="stop2" />
      <stop
         style="stop-color:#99c868;stop-opacity:1"
         offset="1"
         id="stop4" />
    </linearGradient>
  </defs>
  <sodipodi:namedview
     id="base"
     pagecolor="#ffffff"
     bordercolor="#666666"
     borderopacity="1.0"
     inkscape:pageopacity="0.0"
     inkscape:pageshadow="2"
     inkscape:zoom="7.9195959"
     inkscape:cx="9.5810567"
     inkscape:cy="5.6874421"
     inkscape:document-units="px"
     inkscape:current-layer="layer1"
     inkscape:document-rotation="0"
     showgrid="true"
     inkscape:window-width="1343"
     inkscape:window-height="831"
     inkscape:window-x="48"
     inkscape:window-y="0"
     inkscape:window-maximized="0">
    <inkscape:grid
       type="xygrid"
       id="grid27" />
  </sodipodi:namedview>
  <metadata
     id="metadata21">
    <rdf:RDF>
      <cc:Work
         rdf:about="">
        <dc:format>image/svg+xml</dc:format>
        <dc:type
           rdf:resource="http://purl.org/dc/dcmitype/StillImage" />
        <dc:title></dc:title>
      </cc:Work>
    </rdf:RDF>
  </metadata>
  <g
     inkscape:label="Layer 1"
     inkscape:groupmode="layer"
     id="layer1">
    <g
       id="g34"
       transform="matrix(0.7,0,0,0.7,-0.8,-0.8)">
      <rect
         style="fill:url(#linearGradient4161);fill-opacity:1"
         ry="20"
         rx="20"
         transform="matrix(0,-1,-1,0,0,0)"
         height="40"
         width="40"
         y="-44"
         x="-44"
         id="rect10" />
      <g
         transform="matrix(1.0416667,0,0,1.0416667,-0.7000004,-1.3001679)"
         id="g822">
        <path
           inkscape:connector-curvature="0"
           id="path4"
           d="m 24,36.1 c -6.6,0 -12,-5.4 -12,-12 0,-3.6 1.6,-7 4.4,-9.3 l 2.5,3.1 c -1.8,1.5 -2.9,3.8 -2.9,6.2 0,4.4 3.6,8 8,8 4.4,0 8,-3.6 8,-8 0,-2.1 -0.8,-4 -2.2,-5.5 l 2.9,-2.7 c 2.1,2.1 3.3,5.1 3.3,8.2 0,6.6 -5.4,12 -12,12 z"
           style="fill:#dcedc8" />
        <polygon
           id="polygon6"
           points="12,13 21,13 21,22 "
           style="fill:#dcedc8" />
      </g>
    </g>
  </g>
</svg>
