<?xml version="1.0" encoding="UTF-8" standalone="no"?>
<svg
   xmlns:dc="http://purl.org/dc/elements/1.1/"
   xmlns:cc="http://creativecommons.org/ns#"
   xmlns:rdf="http://www.w3.org/1999/02/22-rdf-syntax-ns#"
   xmlns:svg="http://www.w3.org/2000/svg"
   xmlns="http://www.w3.org/2000/svg"
   xmlns:xlink="http://www.w3.org/1999/xlink"
   xmlns:sodipodi="http://sodipodi.sourceforge.net/DTD/sodipodi-0.dtd"
   xmlns:inkscape="http://www.inkscape.org/namespaces/inkscape"
   height="32"
   width="32"
   version="1.1"
   id="svg73"
   sodipodi:docname="drive-partition32.svg"
   inkscape:version="0.92.4 5da689c313, 2019-01-14">
  <metadata
     id="metadata79">
    <rdf:RDF>
      <cc:Work
         rdf:about="">
        <dc:format>image/svg+xml</dc:format>
        <dc:type
           rdf:resource="http://purl.org/dc/dcmitype/StillImage" />
        <dc:title></dc:title>
      </cc:Work>
    </rdf:RDF>
  </metadata>
  <defs
     id="defs77">
    <linearGradient
       inkscape:collect="always"
       xlink:href="#a"
       id="linearGradient125"
       gradientUnits="userSpaceOnUse"
       x1="6"
       y1="58"
       x2="6"
       y2="6" />
    <linearGradient
       inkscape:collect="always"
       xlink:href="#b"
       id="linearGradient127"
       gradientUnits="userSpaceOnUse"
       x1="32"
       y1="41"
       x2="32"
       y2="23" />
  </defs>
  <sodipodi:namedview
     pagecolor="#ffffff"
     bordercolor="#666666"
     borderopacity="1"
     objecttolerance="10"
     gridtolerance="10"
     guidetolerance="10"
     inkscape:pageopacity="0"
     inkscape:pageshadow="2"
     inkscape:window-width="640"
     inkscape:window-height="480"
     id="namedview75"
     showgrid="false"
     fit-margin-top="0"
     fit-margin-left="0"
     fit-margin-right="0"
     fit-margin-bottom="0"
     inkscape:zoom="3.4296875"
     inkscape:cx="-13.999305"
     inkscape:cy="24.630881"
     inkscape:current-layer="svg73" />
  <linearGradient
     id="k"
     gradientUnits="userSpaceOnUse"
     x1="32"
     x2="32"
     xlink:href="#a"
     y1="35"
     y2="29" />
  <linearGradient
     id="e"
     gradientUnits="userSpaceOnUse"
     x1="32"
     x2="32"
     y1="36"
     y2="28">
    <stop
       offset="0"
       stop-color="#5c7274"
       id="stop3" />
    <stop
       offset="1"
       stop-color="#a4a4a4"
       id="stop5" />
  </linearGradient>
  <linearGradient
     id="i"
     gradientUnits="userSpaceOnUse"
     x1="32"
     x2="32"
     xlink:href="#b"
     y1="58"
     y2="40" />
  <linearGradient
     id="h"
     gradientUnits="userSpaceOnUse"
     x1="25.636999"
     x2="57.998001"
     y1="40.675999"
     y2="40.675999">
    <stop
       offset="0"
       stop-color="#292c2f"
       id="stop9" />
    <stop
       offset="1"
       stop-color="#292c2f"
       stop-opacity="0"
       id="stop11" />
  </linearGradient>
  <linearGradient
     id="j"
     gradientUnits="userSpaceOnUse"
     x1="46"
     x2="53.134998"
     xlink:href="#c"
     y1="40"
     y2="47.134998" />
  <linearGradient
     id="c">
    <stop
       offset="0"
       stop-color="#292c2f"
       id="stop15" />
    <stop
       offset="1"
       stop-opacity="0"
       id="stop17" />
  </linearGradient>
  <linearGradient
     id="d"
     gradientUnits="userSpaceOnUse"
     x1="32"
     x2="32"
     y1="32"
     y2="6">
    <stop
       offset="0"
       stop-color="#1190d9"
       id="stop20" />
    <stop
       offset="1"
       stop-color="#73c4ef"
       id="stop22" />
  </linearGradient>
  <linearGradient
     id="b"
     gradientUnits="userSpaceOnUse"
     x1="32"
     x2="32"
     y1="41"
     y2="23">
    <stop
       offset="0"
       stop-color="#cecece"
       id="stop25" />
    <stop
       offset="1"
       stop-color="#ececec"
       id="stop27" />
  </linearGradient>
  <linearGradient
     id="a"
     gradientUnits="userSpaceOnUse"
     x1="6"
     x2="6"
     y1="58"
     y2="6">
    <stop
       offset="0"
       stop-color="#98a7b0"
       id="stop30" />
    <stop
       offset="1"
       stop-color="#dde1e3"
       id="stop32" />
  </linearGradient>
  <linearGradient
     id="g"
     gradientUnits="userSpaceOnUse"
     x1="26"
     x2="50"
     xlink:href="#c"
     y1="26"
     y2="50" />
  <linearGradient
     id="f"
     gradientUnits="userSpaceOnUse"
     x1="35"
     x2="52"
     xlink:href="#c"
     y1="32"
     y2="49" />
  <g
     id="g123"
     transform="scale(0.5)"
     style="stroke-width:2">
    <rect
       y="0"
       x="0"
       height="64"
       width="64"
       id="rect81"
       style="fill:none;fill-opacity:1;stroke:none;stroke-width:2" />
    <g
       id="g101"
       style="stroke-width:2">
      <path
         d="M 32,6 C 17.597,6 6.002,17.596 6.002,32 6.002,46.404 17.597,58 32,58 46.403,58 57.998,46.404 57.998,32 57.998,17.596 46.403,6 32,6 Z m 0,23 c 1.662,0 3,1.338 3,3 0,1.662 -1.338,3 -3,3 -1.662,0 -3,-1.338 -3,-3 0,-1.662 1.338,-3 3,-3 z"
         id="path37"
         inkscape:connector-curvature="0"
         style="fill:url(#linearGradient125);stroke-width:2" />
      <path
         d="m 6.002,31.191 c -0.005,0.218 0,0.436 0,0.655 C 6.002,46.335 17.597,58 32,58 46.403,58 57.998,46.335 57.998,31.846 c 0,-0.22 0.005,-0.437 0,-0.655 C 57.654,45.375 46.185,57 32,57 17.815,57 6.346,45.375 6.002,31.191 Z"
         id="path39"
         inkscape:connector-curvature="0"
         style="opacity:0.4;fill:#292c2f;stroke-width:2" />
      <path
         d="m 32,6 v 21 a 5,5 0 0 1 5,5 H 57.998 C 57.998,17.596 46.403,6 32,6 Z"
         id="path41"
         inkscape:connector-curvature="0"
         style="fill:url(#d);stroke-width:2" />
      <path
         d="M 36.898,31 A 5,5 0 0 1 37,32 h 20.998 c 0,-0.335 -0.013,-0.668 -0.025,-1 z"
         id="path43"
         inkscape:connector-curvature="0"
         style="opacity:0.2;fill:#292c2f;stroke-width:2" />
      <path
         d="m 32,27 a 5,5 0 1 0 0,10 5,5 0 0 0 0,-10 z m 0,2 c 1.662,0 3,1.338 3,3 0,1.662 -1.338,3 -3,3 -1.662,0 -3,-1.338 -3,-3 0,-1.662 1.338,-3 3,-3 z"
         id="path45"
         inkscape:connector-curvature="0"
         style="opacity:0.2;fill:#292c2f;stroke-width:2" />
      <path
         d="m 32,23 a 9,9 0 1 0 0,18 9,9 0 0 0 0,-18 z m 0,4 a 5,5 0 1 1 0,10 5,5 0 0 1 0,-10 z"
         id="path47"
         inkscape:connector-curvature="0"
         style="fill:url(#linearGradient127);stroke-width:2" />
      <path
         d="m 37,28 a 1,1 0 1 1 0,-2 1,1 0 0 1 0,2 z M 27,38 a 1,1 0 1 1 0,-2 1,1 0 0 1 0,2 z m 1,-11 a 1,1 0 1 1 -2,0 1,1 0 0 1 2,0 z m 10,10 a 1,1 0 1 1 -2,0 1,1 0 0 1 2,0 z"
         id="path49"
         inkscape:connector-curvature="0"
         style="opacity:0.4;fill:#292c2f;stroke-width:2" />
      <path
         d="m 32,28 a 4,4 0 1 0 0,8 4,4 0 0 0 0,-8 z m 0,1 a 3,3 0 1 1 0,6 3,3 0 0 1 0,-6 z"
         id="path51"
         inkscape:connector-curvature="0"
         style="fill:url(#e);stroke-width:2" />
      <path
         d="m 33,25 a 1,1 0 1 1 -2,0 1,1 0 0 1 2,0 z m 7,7 a 1,1 0 1 1 -2,0 1,1 0 0 1 2,0 z m -7,7 a 1,1 0 1 1 -2,0 1,1 0 0 1 2,0 z m -7,-7 a 1,1 0 1 1 -2,0 1,1 0 0 1 2,0 z"
         id="path53"
         inkscape:connector-curvature="0"
         style="fill:#4d4d4d;stroke-width:2" />
      <path
         d="M 40.979,32.424 A 9,9 0 0 1 32,41 9,9 0 0 1 23.021,32.576 9,9 0 0 0 23,33 a 9,9 0 0 0 9,9 9,9 0 0 0 9,-9 9,9 0 0 0 -0.021,-0.576 z"
         id="path55"
         inkscape:connector-curvature="0"
         style="fill:#7f8c8d;stroke-width:2" />
      <path
         d="M 44.719,32 55.602,42.88 A 25.912,25.912 0 0 0 57.998,32 Z"
         id="path57"
         inkscape:connector-curvature="0"
         style="opacity:0.2;fill:url(#f);stroke-width:2" />
      <path
         d="m 41,32 a 9,9 0 0 1 -9,9 9,9 0 0 1 -6.36,-2.64 l -0.003,0.003 9.5,9.5 L 37,46 l 1,-2 8,-4 7.135,7.135 a 25.966,25.966 0 0 0 2.486,-4.242 L 44.727,32 Z m 11.967,15.389 c -0.086,0.116 -0.177,0.228 -0.264,0.343 a 25.966,25.966 0 0 0 0.264,-0.343 z m -1.705,2.095 c -0.053,0.058 -0.11,0.113 -0.162,0.17 a 25.966,25.966 0 0 0 0.162,-0.17 z M 49.54,51.2 c -0.08,0.074 -0.159,0.15 -0.24,0.223 A 25.966,25.966 0 0 0 49.54,51.2 Z m -2.01,1.658 c -0.102,0.077 -0.203,0.154 -0.306,0.229 a 25.966,25.966 0 0 0 0.306,-0.229 z m -2.203,1.475 c -0.11,0.066 -0.222,0.13 -0.334,0.193 a 25.966,25.966 0 0 0 0.334,-0.193 z m -2.371,1.258 -0.066,0.03 0.004,0.003 a 25.966,25.966 0 0 0 0.062,-0.033 z"
         id="path59"
         inkscape:connector-curvature="0"
         style="opacity:0.3;fill:url(#g);stroke-width:2" />
      <path
         d="m 41,32 h 3.727 l -6.27,-6.27 A 9,9 0 0 1 41,32 Z"
         id="path61"
         inkscape:connector-curvature="0"
         style="opacity:0.2;fill:url(#h);stroke-width:2" />
      <path
         d="m 46,40 -8,4 -1,2 -3,3 -10.447,7.6 C 26.2,57.503 29.039,58 32,58 c 0.218,0 0.432,-0.01 0.648,-0.016 L 37,52 l 3,-3 2,-1 z"
         id="path63"
         inkscape:connector-curvature="0"
         style="opacity:0.2;fill:#292c2f;stroke-width:2" />
      <path
         d="m 46,40 -8,4 -1,2 -3,3 -10.447,7.6 C 26.2,57.503 29.039,58 32,58 c 0.218,0 0.432,-0.01 0.648,-0.016 L 37,52 40,49 42,48 Z M 40,44.586 41.414,46 40,47.414 38.586,46 Z M 36.586,48 38,49.414 37.414,50 H 36 V 48.586 Z M 34,51 a 1,1 0 0 1 1,1 1,1 0 0 1 -1,1 1,1 0 0 1 -1,-1 1,1 0 0 1 1,-1 z m -3,2 2,2 -1.654,1.984 a 25.525,25.525 0 0 1 -4.516,-0.51 z m -4.035,4.51 c 0.096,0.019 0.193,0.033 0.289,0.05 -0.096,-0.017 -0.193,-0.031 -0.29,-0.05 z"
         id="path65"
         inkscape:connector-curvature="0"
         style="fill:url(#i);stroke-width:2" />
      <path
         d="M 36,48.586 31,53 l 2,2 4.414,-5 H 36 Z M 38.586,46 l -2,2 1.414,1.414 2,-2 z M 44,42 40,44.586 41.414,46 Z"
         id="path67"
         inkscape:connector-curvature="0"
         style="opacity:0.1;fill:#292c2f;stroke-width:2" />
      <path
         d="m 46,40 -4,8 -2,1 -3,3 -4.352,5.984 a 25.91,25.91 0 0 0 20.5,-10.836 z"
         id="path69"
         inkscape:connector-curvature="0"
         style="opacity:0.2;fill:url(#j);stroke-width:2" />
      <circle
         cx="32"
         cy="32"
         r="3"
         id="circle71"
         style="fill:url(#k);stroke-width:2" />
    </g>
  </g>
</svg>
